<?xml version="1.0" standalone="no"?><!DOCTYPE svg PUBLIC "-//W3C//DTD SVG 1.1//EN" "http://www.w3.org/Graphics/SVG/1.1/DTD/svg11.dtd"><svg t="1655391382316" class="icon" viewBox="0 0 1024 1024" version="1.1" xmlns="http://www.w3.org/2000/svg" p-id="6591" xmlns:xlink="http://www.w3.org/1999/xlink" width="200" height="200"><defs><style type="text/css"></style></defs><path d="M512 42.666667a469.333333 469.333333 0 1 0 469.333333 469.333333A469.333333 469.333333 0 0 0 512 42.666667z m0 896a426.666667 426.666667 0 1 1 426.666667-426.666667 426.666667 426.666667 0 0 1-426.666667 426.666667z" fill="#CE4141" p-id="6592"></path><path d="M533.333333 503.253333V277.333333a21.333333 21.333333 0 0 0-42.666666 0v234.666667a21.333333 21.333333 0 0 0 6.186666 15.146667l155.733334 155.52A21.333333 21.333333 0 0 0 682.666667 652.586667zM192 490.666667H149.333333a21.333333 21.333333 0 0 0 0 42.666666h42.666667a21.333333 21.333333 0 0 0 0-42.666666zM874.666667 490.666667h-42.666667a21.333333 21.333333 0 0 0 0 42.666666h42.666667a21.333333 21.333333 0 0 0 0-42.666666zM512 810.666667a21.333333 21.333333 0 0 0-21.333333 21.333333v42.666667a21.333333 21.333333 0 0 0 42.666666 0v-42.666667a21.333333 21.333333 0 0 0-21.333333-21.333333zM512 213.333333a21.333333 21.333333 0 0 0 21.333333-21.333333V149.333333a21.333333 21.333333 0 0 0-42.666666 0v42.666667a21.333333 21.333333 0 0 0 21.333333 21.333333z" fill="#CE4141" p-id="6593"></path></svg>